<svg width="24" height="40" viewBox="0 0 24 40" fill="none" xmlns="http://www.w3.org/2000/svg">
<path d="M14.2653 39.2637H7.77596C6.69203 39.2637 5.81029 38.4151 5.81029 37.3719V23.2848H2.02426C0.940331 23.2848 0.0585938 22.4359 0.0585938 21.393V15.3567C0.0585938 14.3135 0.940331 13.4649 2.02426 13.4649H5.81029V10.4421C5.81029 7.44495 6.78818 4.89498 8.63791 3.06834C10.496 1.23338 13.0927 0.263672 16.1472 0.263672L21.0963 0.271408C22.1784 0.273193 23.0586 1.1218 23.0586 2.16321V7.76779C23.0586 8.81099 22.1772 9.65959 21.0935 9.65959L17.7614 9.66078C16.7451 9.66078 16.4864 9.85686 16.431 9.91697C16.3398 10.0166 16.2313 10.2984 16.2313 11.0765V13.4646H20.8431C21.1903 13.4646 21.5267 13.547 21.8158 13.7024C22.4393 14.0377 22.827 14.6718 22.827 15.357L22.8246 21.3933C22.8246 22.4359 21.9428 23.2845 20.8589 23.2845H16.2313V37.3719C16.2313 38.4151 15.3493 39.2637 14.2653 39.2637ZM8.18592 36.9773H13.8554V22.2613C13.8554 21.5647 14.4443 20.9982 15.1678 20.9982H20.4489L20.4511 15.7513H15.1675C14.444 15.7513 13.8554 15.1847 13.8554 14.4882V11.0765C13.8554 10.1833 13.9497 9.16745 14.6502 8.40395C15.4967 7.48096 16.8308 7.37444 17.7607 7.37444L20.683 7.37325V2.55716L16.1454 2.55002C11.2364 2.55002 8.18592 5.57428 8.18592 10.4421V14.4882C8.18592 15.1844 7.59727 15.7513 6.87382 15.7513H2.43422V20.9982H6.87382C7.59727 20.9982 8.18592 21.5647 8.18592 22.2613V36.9773ZM21.0917 2.55775H21.092H21.0917Z" fill="#C4C4C4"/>
</svg>
