<svg width="40" height="41" viewBox="0 0 40 41" fill="none" xmlns="http://www.w3.org/2000/svg">
<path d="M28.8285 0.949219H10.7C4.79993 0.949219 0 5.74915 0 11.6492V29.778C0 35.6778 4.79993 40.4777 10.7 40.4777H28.8288C34.7286 40.4777 39.5285 35.6778 39.5285 29.778V11.6492C39.5285 5.74915 34.7286 0.949219 28.8285 0.949219V0.949219ZM37.2112 29.778C37.2112 34.4 33.4508 38.1604 28.8285 38.1604H10.7C6.07772 38.1604 2.31733 34.4 2.31733 29.778V11.6492C2.31733 7.02693 6.07772 3.26655 10.7 3.26655H28.8288C33.4508 3.26655 37.2112 7.02693 37.2112 11.6492V29.778Z" fill="#001E64"/>
<path d="M19.7614 9.9043C13.8016 9.9043 8.95312 14.7528 8.95312 20.7126C8.95312 26.6724 13.8016 31.5209 19.7614 31.5209C25.7212 31.5209 30.5697 26.6724 30.5697 20.7126C30.5697 14.7528 25.7212 9.9043 19.7614 9.9043ZM19.7614 29.2035C15.0797 29.2035 11.2705 25.3946 11.2705 20.7126C11.2705 16.0309 15.0797 12.2216 19.7614 12.2216C24.4434 12.2216 28.2524 16.0309 28.2524 20.7126C28.2524 25.3946 24.4434 29.2035 19.7614 29.2035Z" fill="#001E64"/>
<path d="M30.8304 6.06641C29.0692 6.06641 27.6367 7.49921 27.6367 9.26013C27.6367 11.0213 29.0692 12.4541 30.8304 12.4541C32.5917 12.4541 34.0245 11.0213 34.0245 9.26013C34.0245 7.49891 32.5917 6.06641 30.8304 6.06641ZM30.8304 10.1365C30.3473 10.1365 29.954 9.74325 29.954 9.26013C29.954 8.77669 30.3473 8.38374 30.8304 8.38374C31.3139 8.38374 31.7071 8.77669 31.7071 9.26013C31.7071 9.74325 31.3139 10.1365 30.8304 10.1365Z" fill="#001E64"/>
</svg>
