<svg width="41" height="32" viewBox="0 0 41 32" fill="none" xmlns="http://www.w3.org/2000/svg">
<path d="M40.1972 0.801981C39.8053 0.317828 39.1556 0.138283 38.5779 0.353737L1.88607 13.8038C1.15304 14.0741 0.638513 14.7294 0.542994 15.5142C0.448389 16.2952 0.787744 17.053 1.42434 17.4892L6.66908 21.1209C7.1772 21.4729 7.83058 21.5107 8.37471 21.2194L19.7516 15.1337L10.8848 21.8496C10.4685 22.1651 10.2198 22.6681 10.2198 23.195V29.4159C10.2198 30.0576 10.5668 30.6455 11.1252 30.9507C11.6846 31.2559 12.3603 31.2256 12.8916 30.8702L16.8763 28.1891L20.7947 30.8993C21.138 31.138 21.547 31.2637 21.9596 31.2637C22.099 31.2637 22.2391 31.2491 22.3771 31.22C22.9273 31.1036 23.414 30.7588 23.7128 30.274L40.3134 2.50704C40.6366 1.97243 40.5902 1.2883 40.1972 0.801981ZM21.872 28.7655L17.8141 25.9587C17.5318 25.7631 17.2065 25.6653 16.8815 25.6653C16.5635 25.6653 16.2452 25.7591 15.9665 25.9467L12.5648 28.2355V23.546L28.2218 11.6871C28.9209 11.1574 29.097 10.1934 28.631 9.44491C28.1647 8.6964 27.2312 8.44348 26.4594 8.85644L7.64839 18.9187L3.21236 15.8469L37.0004 3.46142L21.872 28.7655Z" fill="#C4C4C4"/>
</svg>
