<svg width="41" height="40" viewBox="0 0 41 40" fill="none" xmlns="http://www.w3.org/2000/svg">
<path d="M34.4414 5.95435C30.8207 2.33358 26.0078 0.339844 20.887 0.339844C20.8867 0.339844 20.8855 0.339844 20.8852 0.339844C18.3525 0.340145 15.8844 0.830513 13.5498 1.79768C11.215 2.76484 9.12326 4.16327 7.33218 5.95435C3.71172 9.5748 1.71798 14.3886 1.71798 19.5088C1.71798 22.5623 2.45474 25.5968 3.85075 28.3005L0.628679 37.5053C0.40159 38.1546 0.562331 38.8603 1.04908 39.3467C1.38956 39.6875 1.83771 39.8684 2.29852 39.8684C2.49606 39.8684 2.6957 39.8353 2.89052 39.7671L12.0953 36.5453C14.799 37.9414 17.8335 38.6781 20.887 38.6781C26.0072 38.6781 30.8207 36.6841 34.4414 33.0636C38.0619 29.4431 40.0559 24.6293 40.0559 19.5091C40.0559 14.3886 38.0622 9.5748 34.4414 5.95435ZM32.8021 31.4242C29.6195 34.6071 25.3877 36.3596 20.887 36.3596C18.1335 36.3596 15.3982 35.6786 12.9765 34.3897C12.5374 34.1562 12.0184 34.1161 11.5525 34.2793L3.18969 37.2061L6.11682 28.8433C6.27997 28.3768 6.23956 27.8577 6.00614 27.4189C4.71749 24.9979 4.03622 22.2625 4.03622 19.5088C4.03622 15.0081 5.789 10.7763 8.97157 7.59373C12.1538 4.41147 16.385 2.65869 20.8855 2.65808H20.887C25.388 2.65808 29.6195 4.41086 32.8021 7.59373C35.9849 10.7763 37.7377 15.0078 37.7377 19.5088C37.7377 24.0099 35.9849 28.2417 32.8021 31.4242Z" fill="#C4C4C4"/>
<path d="M28.0111 21.2216C27.1293 20.3398 25.6944 20.3398 24.8126 21.2216L23.8481 22.1861C21.4533 20.8812 19.5153 18.9432 18.2101 16.5484L19.1746 15.5839C20.0567 14.7021 20.0567 13.2672 19.1746 12.3854L16.5755 9.78636C15.6937 8.90455 14.2588 8.90455 13.377 9.78636L11.2979 11.8655C10.107 13.0564 10.0476 15.1038 11.1305 17.6307C12.0708 19.8247 13.7917 22.2362 15.976 24.4205C18.1603 26.6048 20.5718 28.3257 22.7658 29.266C23.9663 29.7805 25.0584 30.0371 26.002 30.0371C27.0446 30.0371 27.9059 29.7238 28.531 29.0986L30.6101 27.0192V27.0195C31.0375 26.5922 31.2727 26.0243 31.2727 25.4202C31.2727 24.8159 31.0375 24.248 30.6101 23.821L28.0111 21.2216ZM26.8917 27.4592C26.5518 27.7991 25.5065 27.9182 23.6792 27.1353C21.7497 26.3084 19.5962 24.7619 17.6154 22.7811C15.6346 20.8003 14.0884 18.6471 13.2615 16.7176C12.4783 14.8903 12.5974 13.8447 12.9373 13.5048L14.9766 11.4656L17.4954 13.9846L16.2881 15.1922C15.7423 15.738 15.6105 16.5659 15.9606 17.2523C17.5478 20.3646 20.0319 22.8487 23.1442 24.4359C23.8309 24.786 24.6588 24.6545 25.2046 24.1084L26.4119 22.9011L28.9309 25.4202L26.8917 27.4592Z" fill="#C4C4C4"/>
</svg>
